<svg width="8" height="10" viewBox="0 0 8 10" fill="none" xmlns="http://www.w3.org/2000/svg">
<path d="M7.64638 5.48858C7.37387 5.21583 6.93174 5.21607 6.65948 5.48834L5.09212 7.05545V0.697642C5.09212 0.312388 4.77949 0 4.39424 0C4.00898 0 3.69634 0.312388 3.69634 0.697642V7.0552L2.12948 5.48834C1.85697 5.21607 1.41509 5.21607 1.14234 5.48834C0.870075 5.76084 0.870075 6.20272 1.14234 6.47547L3.88441 9.21755C3.90287 9.237 4.1237 9.43811 4.39424 9.43811C4.66478 9.43811 4.86441 9.25964 4.90676 9.21459L7.64612 6.47547C7.91888 6.20296 7.91889 5.76109 7.64638 5.48858Z" fill="white"/>
</svg>
